<?xml version="1.0" encoding="UTF-8" standalone="no"?>
<!DOCTYPE svg PUBLIC "-//W3C//DTD SVG 1.1//EN"
 "http://www.w3.org/Graphics/SVG/1.1/DTD/svg11.dtd">
<!-- Generated by graphviz version 2.40.1 (20161225.0304)
 -->
<!-- Title: alert Pages: 1 -->
<svg width="295pt" height="765pt"
 viewBox="0.00 0.00 295.00 765.00" xmlns="http://www.w3.org/2000/svg" xmlns:xlink="http://www.w3.org/1999/xlink">
<g id="graph0" class="graph" transform="scale(1 1) rotate(0) translate(4 761)">
<title>alert</title>
<polygon fill="#ffffff" stroke="transparent" points="-4,4 -4,-761 291,-761 291,4 -4,4"/>
<!-- alert -->
<g id="node1" class="node">
<title>alert</title>
<polygon fill="#efefef" stroke="transparent" points="46.5,-675.5 46.5,-710.5 241.5,-710.5 241.5,-675.5 46.5,-675.5"/>
<polygon fill="none" stroke="#000000" points="46.5,-675.5 46.5,-710.5 241.5,-710.5 241.5,-675.5 46.5,-675.5"/>
<text text-anchor="start" x="105.4911" y="-688.3" font-family="Arial Bold" font-size="18.00" fill="#000000">alert</text>
<text text-anchor="start" x="140.4921" y="-688.3" font-family="Arial" font-size="14.00" fill="#000000"> </text>
<text text-anchor="start" x="144.3827" y="-688.3" font-family="Arial" font-size="14.00" fill="#666666">[table]</text>
<polygon fill="none" stroke="#000000" points="46.5,-645.5 46.5,-675.5 241.5,-675.5 241.5,-645.5 46.5,-645.5"/>
<text text-anchor="start" x="53.5" y="-656.9" font-family="Arial" font-size="14.00" fill="#000000">id </text>
<text text-anchor="start" x="68.2798" y="-656.9" font-family="Arial" font-size="14.00" fill="#666666">[INTEGER]</text>
<polygon fill="none" stroke="#000000" points="46.5,-615.5 46.5,-645.5 241.5,-645.5 241.5,-615.5 46.5,-615.5"/>
<text text-anchor="start" x="53.5" y="-626.9" font-family="Arial" font-size="14.00" fill="#000000">version </text>
<text text-anchor="start" x="102.5056" y="-626.9" font-family="Arial" font-size="14.00" fill="#666666">[INTEGER]</text>
<polygon fill="none" stroke="#000000" points="46.5,-585.5 46.5,-615.5 241.5,-615.5 241.5,-585.5 46.5,-585.5"/>
<text text-anchor="start" x="53.5" y="-596.9" font-family="Arial" font-size="14.00" fill="#000000">dashboard_id </text>
<text text-anchor="start" x="142.2012" y="-596.9" font-family="Arial" font-size="14.00" fill="#666666">[INTEGER]</text>
<polygon fill="none" stroke="#000000" points="46.5,-555.5 46.5,-585.5 241.5,-585.5 241.5,-555.5 46.5,-555.5"/>
<text text-anchor="start" x="53.5" y="-566.9" font-family="Arial" font-size="14.00" fill="#000000">panel_id </text>
<text text-anchor="start" x="110.2994" y="-566.9" font-family="Arial" font-size="14.00" fill="#666666">[INTEGER]</text>
<polygon fill="none" stroke="#000000" points="46.5,-525.5 46.5,-555.5 241.5,-555.5 241.5,-525.5 46.5,-525.5"/>
<text text-anchor="start" x="53.5" y="-536.9" font-family="Arial" font-size="14.00" fill="#000000">org_id </text>
<text text-anchor="start" x="96.2882" y="-536.9" font-family="Arial" font-size="14.00" fill="#666666">[INTEGER]</text>
<polygon fill="none" stroke="#000000" points="46.5,-495.5 46.5,-525.5 241.5,-525.5 241.5,-495.5 46.5,-495.5"/>
<text text-anchor="start" x="53.5" y="-506.9" font-family="Arial" font-size="14.00" fill="#000000">name </text>
<text text-anchor="start" x="92.399" y="-506.9" font-family="Arial" font-size="14.00" fill="#666666">[TEXT]</text>
<polygon fill="none" stroke="#000000" points="46.5,-465.5 46.5,-495.5 241.5,-495.5 241.5,-465.5 46.5,-465.5"/>
<text text-anchor="start" x="53.5" y="-476.9" font-family="Arial" font-size="14.00" fill="#000000">message </text>
<text text-anchor="start" x="114.1816" y="-476.9" font-family="Arial" font-size="14.00" fill="#666666">[TEXT]</text>
<polygon fill="none" stroke="#000000" points="46.5,-435.5 46.5,-465.5 241.5,-465.5 241.5,-435.5 46.5,-435.5"/>
<text text-anchor="start" x="53.5" y="-446.9" font-family="Arial" font-size="14.00" fill="#000000">state </text>
<text text-anchor="start" x="87.737" y="-446.9" font-family="Arial" font-size="14.00" fill="#666666">[TEXT]</text>
<polygon fill="none" stroke="#000000" points="46.5,-405.5 46.5,-435.5 241.5,-435.5 241.5,-405.5 46.5,-405.5"/>
<text text-anchor="start" x="53.5" y="-416.9" font-family="Arial" font-size="14.00" fill="#000000">settings </text>
<text text-anchor="start" x="105.6262" y="-416.9" font-family="Arial" font-size="14.00" fill="#666666">[TEXT]</text>
<polygon fill="none" stroke="#000000" points="46.5,-375.5 46.5,-405.5 241.5,-405.5 241.5,-375.5 46.5,-375.5"/>
<text text-anchor="start" x="53.5" y="-386.9" font-family="Arial" font-size="14.00" fill="#000000">frequency </text>
<text text-anchor="start" x="118.8548" y="-386.9" font-family="Arial" font-size="14.00" fill="#666666">[INTEGER]</text>
<polygon fill="none" stroke="#000000" points="46.5,-345.5 46.5,-375.5 241.5,-375.5 241.5,-345.5 46.5,-345.5"/>
<text text-anchor="start" x="53.5" y="-356.9" font-family="Arial" font-size="14.00" fill="#000000">handler </text>
<text text-anchor="start" x="104.0708" y="-356.9" font-family="Arial" font-size="14.00" fill="#666666">[INTEGER]</text>
<polygon fill="none" stroke="#000000" points="46.5,-315.5 46.5,-345.5 241.5,-345.5 241.5,-315.5 46.5,-315.5"/>
<text text-anchor="start" x="53.5" y="-326.9" font-family="Arial" font-size="14.00" fill="#000000">severity </text>
<text text-anchor="start" x="105.6136" y="-326.9" font-family="Arial" font-size="14.00" fill="#666666">[TEXT]</text>
<polygon fill="none" stroke="#000000" points="46.5,-285.5 46.5,-315.5 241.5,-315.5 241.5,-285.5 46.5,-285.5"/>
<text text-anchor="start" x="53.5" y="-296.9" font-family="Arial" font-size="14.00" fill="#000000">silenced </text>
<text text-anchor="start" x="108.7342" y="-296.9" font-family="Arial" font-size="14.00" fill="#666666">[INTEGER]</text>
<polygon fill="none" stroke="#000000" points="46.5,-255.5 46.5,-285.5 241.5,-285.5 241.5,-255.5 46.5,-255.5"/>
<text text-anchor="start" x="53.5" y="-266.9" font-family="Arial" font-size="14.00" fill="#000000">execution_error </text>
<text text-anchor="start" x="154.6304" y="-266.9" font-family="Arial" font-size="14.00" fill="#666666">[TEXT]</text>
<polygon fill="none" stroke="#000000" points="46.5,-225.5 46.5,-255.5 241.5,-255.5 241.5,-225.5 46.5,-225.5"/>
<text text-anchor="start" x="53.5" y="-236.9" font-family="Arial" font-size="14.00" fill="#000000">eval_data </text>
<text text-anchor="start" x="118.0834" y="-236.9" font-family="Arial" font-size="14.00" fill="#666666">[TEXT]</text>
<polygon fill="none" stroke="#000000" points="46.5,-195.5 46.5,-225.5 241.5,-225.5 241.5,-195.5 46.5,-195.5"/>
<text text-anchor="start" x="53.5" y="-206.9" font-family="Arial" font-size="14.00" fill="#000000">eval_date </text>
<text text-anchor="start" x="118.0834" y="-206.9" font-family="Arial" font-size="14.00" fill="#666666">[DATETIME]</text>
<polygon fill="none" stroke="#000000" points="46.5,-165.5 46.5,-195.5 241.5,-195.5 241.5,-165.5 46.5,-165.5"/>
<text text-anchor="start" x="53.3668" y="-176.9" font-family="Arial" font-size="14.00" fill="#000000">new_state_date </text>
<text text-anchor="start" x="156.0792" y="-176.9" font-family="Arial" font-size="14.00" fill="#666666">[DATETIME]</text>
<polygon fill="none" stroke="#000000" points="46.5,-135.5 46.5,-165.5 241.5,-165.5 241.5,-135.5 46.5,-135.5"/>
<text text-anchor="start" x="53.5" y="-146.9" font-family="Arial" font-size="14.00" fill="#000000">state_changes </text>
<text text-anchor="start" x="148.4326" y="-146.9" font-family="Arial" font-size="14.00" fill="#666666">[INTEGER]</text>
<polygon fill="none" stroke="#000000" points="46.5,-105.5 46.5,-135.5 241.5,-135.5 241.5,-105.5 46.5,-105.5"/>
<text text-anchor="start" x="53.5" y="-116.9" font-family="Arial" font-size="14.00" fill="#000000">created </text>
<text text-anchor="start" x="104.0722" y="-116.9" font-family="Arial" font-size="14.00" fill="#666666">[DATETIME]</text>
<polygon fill="none" stroke="#000000" points="46.5,-75.5 46.5,-105.5 241.5,-105.5 241.5,-75.5 46.5,-75.5"/>
<text text-anchor="start" x="53.5" y="-86.9" font-family="Arial" font-size="14.00" fill="#000000">updated </text>
<text text-anchor="start" x="107.9768" y="-86.9" font-family="Arial" font-size="14.00" fill="#666666">[DATETIME]</text>
<polygon fill="none" stroke="#000000" points="46.5,-45.5 46.5,-75.5 241.5,-75.5 241.5,-45.5 46.5,-45.5"/>
<text text-anchor="start" x="53.5" y="-56.9" font-family="Arial" font-size="14.00" fill="#000000">for </text>
<text text-anchor="start" x="73.7244" y="-56.9" font-family="Arial" font-size="14.00" fill="#666666">[INTEGER]</text>
<polygon fill="none" stroke="#000000" stroke-width="3" points="44.5,-44.5 44.5,-712.5 242.5,-712.5 242.5,-44.5 44.5,-44.5"/>
</g>
</g>
</svg>
