<?xml version="1.0" encoding="UTF-8" standalone="no"?>
<!DOCTYPE svg PUBLIC "-//W3C//DTD SVG 1.1//EN"
 "http://www.w3.org/Graphics/SVG/1.1/DTD/svg11.dtd">
<!-- Generated by graphviz version 2.40.1 (20161225.0304)
 -->
<!-- Title: cache_data Pages: 1 -->
<svg width="254pt" height="255pt"
 viewBox="0.00 0.00 254.00 255.00" xmlns="http://www.w3.org/2000/svg" xmlns:xlink="http://www.w3.org/1999/xlink">
<g id="graph0" class="graph" transform="scale(1 1) rotate(0) translate(4 251)">
<title>cache_data</title>
<polygon fill="#ffffff" stroke="transparent" points="-4,4 -4,-251 250,-251 250,4 -4,4"/>
<!-- cache_data -->
<g id="node1" class="node">
<title>cache_data</title>
<polygon fill="#efefef" stroke="transparent" points="46,-165.5 46,-200.5 200,-200.5 200,-165.5 46,-165.5"/>
<polygon fill="none" stroke="#000000" points="46,-165.5 46,-200.5 200,-200.5 200,-165.5 46,-165.5"/>
<text text-anchor="start" x="55.4688" y="-178.3" font-family="Arial Bold" font-size="18.00" fill="#000000">cache_data</text>
<text text-anchor="start" x="148.5144" y="-178.3" font-family="Arial" font-size="14.00" fill="#000000"> </text>
<text text-anchor="start" x="152.405" y="-178.3" font-family="Arial" font-size="14.00" fill="#666666">[table]</text>
<polygon fill="none" stroke="#000000" points="46,-135.5 46,-165.5 200,-165.5 200,-135.5 46,-135.5"/>
<text text-anchor="start" x="53" y="-146.9" font-family="Arial" font-size="14.00" fill="#000000">cache_key </text>
<text text-anchor="start" x="123.8036" y="-146.9" font-family="Arial" font-size="14.00" fill="#666666">[TEXT]</text>
<polygon fill="none" stroke="#000000" points="46,-105.5 46,-135.5 200,-135.5 200,-105.5 46,-105.5"/>
<text text-anchor="start" x="53" y="-116.9" font-family="Arial" font-size="14.00" fill="#000000">data </text>
<text text-anchor="start" x="84.129" y="-116.9" font-family="Arial" font-size="14.00" fill="#666666">[BLOB]</text>
<polygon fill="none" stroke="#000000" points="46,-75.5 46,-105.5 200,-105.5 200,-75.5 46,-75.5"/>
<text text-anchor="start" x="53" y="-86.9" font-family="Arial" font-size="14.00" fill="#000000">expires </text>
<text text-anchor="start" x="102.0056" y="-86.9" font-family="Arial" font-size="14.00" fill="#666666">[INTEGER]</text>
<polygon fill="none" stroke="#000000" points="46,-45.5 46,-75.5 200,-75.5 200,-45.5 46,-45.5"/>
<text text-anchor="start" x="52.9853" y="-56.9" font-family="Arial" font-size="14.00" fill="#000000">created_at </text>
<text text-anchor="start" x="123.0133" y="-56.9" font-family="Arial" font-size="14.00" fill="#666666">[INTEGER]</text>
<polygon fill="none" stroke="#000000" stroke-width="3" points="44.5,-44.5 44.5,-202.5 201.5,-202.5 201.5,-44.5 44.5,-44.5"/>
</g>
</g>
</svg>
