<?xml version="1.0" encoding="UTF-8" standalone="no"?>
<!DOCTYPE svg PUBLIC "-//W3C//DTD SVG 1.1//EN"
 "http://www.w3.org/Graphics/SVG/1.1/DTD/svg11.dtd">
<!-- Generated by graphviz version 2.40.1 (20161225.0304)
 -->
<!-- Title: dashboard Pages: 1 -->
<svg width="261pt" height="615pt"
 viewBox="0.00 0.00 261.00 615.00" xmlns="http://www.w3.org/2000/svg" xmlns:xlink="http://www.w3.org/1999/xlink">
<g id="graph0" class="graph" transform="scale(1 1) rotate(0) translate(4 611)">
<title>dashboard</title>
<polygon fill="#ffffff" stroke="transparent" points="-4,4 -4,-611 257,-611 257,4 -4,4"/>
<!-- dashboard -->
<g id="node1" class="node">
<title>dashboard</title>
<polygon fill="#efefef" stroke="transparent" points="46.5,-525.5 46.5,-560.5 207.5,-560.5 207.5,-525.5 46.5,-525.5"/>
<polygon fill="none" stroke="#000000" points="46.5,-525.5 46.5,-560.5 207.5,-560.5 207.5,-525.5 46.5,-525.5"/>
<text text-anchor="start" x="63.4738" y="-538.3" font-family="Arial Bold" font-size="18.00" fill="#000000">dashboard</text>
<text text-anchor="start" x="148.5094" y="-538.3" font-family="Arial" font-size="14.00" fill="#000000"> </text>
<text text-anchor="start" x="152.4" y="-538.3" font-family="Arial" font-size="14.00" fill="#666666">[table]</text>
<polygon fill="none" stroke="#000000" points="46.5,-495.5 46.5,-525.5 207.5,-525.5 207.5,-495.5 46.5,-495.5"/>
<text text-anchor="start" x="53.5" y="-506.9" font-family="Arial" font-size="14.00" fill="#000000">id </text>
<text text-anchor="start" x="68.2798" y="-506.9" font-family="Arial" font-size="14.00" fill="#666666">[INTEGER]</text>
<polygon fill="none" stroke="#000000" points="46.5,-465.5 46.5,-495.5 207.5,-495.5 207.5,-465.5 46.5,-465.5"/>
<text text-anchor="start" x="53.5" y="-476.9" font-family="Arial" font-size="14.00" fill="#000000">version </text>
<text text-anchor="start" x="102.5056" y="-476.9" font-family="Arial" font-size="14.00" fill="#666666">[INTEGER]</text>
<polygon fill="none" stroke="#000000" points="46.5,-435.5 46.5,-465.5 207.5,-465.5 207.5,-435.5 46.5,-435.5"/>
<text text-anchor="start" x="53.5" y="-446.9" font-family="Arial" font-size="14.00" fill="#000000">slug </text>
<text text-anchor="start" x="83.0624" y="-446.9" font-family="Arial" font-size="14.00" fill="#666666">[TEXT]</text>
<polygon fill="none" stroke="#000000" points="46.5,-405.5 46.5,-435.5 207.5,-435.5 207.5,-405.5 46.5,-405.5"/>
<text text-anchor="start" x="53.5" y="-416.9" font-family="Arial" font-size="14.00" fill="#000000">title </text>
<text text-anchor="start" x="79.1676" y="-416.9" font-family="Arial" font-size="14.00" fill="#666666">[TEXT]</text>
<polygon fill="none" stroke="#000000" points="46.5,-375.5 46.5,-405.5 207.5,-405.5 207.5,-375.5 46.5,-375.5"/>
<text text-anchor="start" x="53.5" y="-386.9" font-family="Arial" font-size="14.00" fill="#000000">data </text>
<text text-anchor="start" x="84.629" y="-386.9" font-family="Arial" font-size="14.00" fill="#666666">[TEXT]</text>
<polygon fill="none" stroke="#000000" points="46.5,-345.5 46.5,-375.5 207.5,-375.5 207.5,-345.5 46.5,-345.5"/>
<text text-anchor="start" x="53.5" y="-356.9" font-family="Arial" font-size="14.00" fill="#000000">org_id </text>
<text text-anchor="start" x="96.2882" y="-356.9" font-family="Arial" font-size="14.00" fill="#666666">[INTEGER]</text>
<polygon fill="none" stroke="#000000" points="46.5,-315.5 46.5,-345.5 207.5,-345.5 207.5,-315.5 46.5,-315.5"/>
<text text-anchor="start" x="53.5" y="-326.9" font-family="Arial" font-size="14.00" fill="#000000">created </text>
<text text-anchor="start" x="104.0722" y="-326.9" font-family="Arial" font-size="14.00" fill="#666666">[DATETIME]</text>
<polygon fill="none" stroke="#000000" points="46.5,-285.5 46.5,-315.5 207.5,-315.5 207.5,-285.5 46.5,-285.5"/>
<text text-anchor="start" x="53.5" y="-296.9" font-family="Arial" font-size="14.00" fill="#000000">updated </text>
<text text-anchor="start" x="107.9768" y="-296.9" font-family="Arial" font-size="14.00" fill="#666666">[DATETIME]</text>
<polygon fill="none" stroke="#000000" points="46.5,-255.5 46.5,-285.5 207.5,-285.5 207.5,-255.5 46.5,-255.5"/>
<text text-anchor="start" x="53.4783" y="-266.9" font-family="Arial" font-size="14.00" fill="#000000">updated_by </text>
<text text-anchor="start" x="130.5203" y="-266.9" font-family="Arial" font-size="14.00" fill="#666666">[INTEGER]</text>
<polygon fill="none" stroke="#000000" points="46.5,-225.5 46.5,-255.5 207.5,-255.5 207.5,-225.5 46.5,-225.5"/>
<text text-anchor="start" x="53.5" y="-236.9" font-family="Arial" font-size="14.00" fill="#000000">created_by </text>
<text text-anchor="start" x="126.6374" y="-236.9" font-family="Arial" font-size="14.00" fill="#666666">[INTEGER]</text>
<polygon fill="none" stroke="#000000" points="46.5,-195.5 46.5,-225.5 207.5,-225.5 207.5,-195.5 46.5,-195.5"/>
<text text-anchor="start" x="53.5" y="-206.9" font-family="Arial" font-size="14.00" fill="#000000">gnet_id </text>
<text text-anchor="start" x="103.3008" y="-206.9" font-family="Arial" font-size="14.00" fill="#666666">[INTEGER]</text>
<polygon fill="none" stroke="#000000" points="46.5,-165.5 46.5,-195.5 207.5,-195.5 207.5,-165.5 46.5,-165.5"/>
<text text-anchor="start" x="53.5" y="-176.9" font-family="Arial" font-size="14.00" fill="#000000">plugin_id </text>
<text text-anchor="start" x="113.406" y="-176.9" font-family="Arial" font-size="14.00" fill="#666666">[TEXT]</text>
<polygon fill="none" stroke="#000000" points="46.5,-135.5 46.5,-165.5 207.5,-165.5 207.5,-135.5 46.5,-135.5"/>
<text text-anchor="start" x="53.5" y="-146.9" font-family="Arial" font-size="14.00" fill="#000000">folder_id </text>
<text text-anchor="start" x="111.068" y="-146.9" font-family="Arial" font-size="14.00" fill="#666666">[INTEGER]</text>
<polygon fill="none" stroke="#000000" points="46.5,-105.5 46.5,-135.5 207.5,-135.5 207.5,-105.5 46.5,-105.5"/>
<text text-anchor="start" x="53.5" y="-116.9" font-family="Arial" font-size="14.00" fill="#000000">is_folder </text>
<text text-anchor="start" x="110.2854" y="-116.9" font-family="Arial" font-size="14.00" fill="#666666">[INTEGER]</text>
<polygon fill="none" stroke="#000000" points="46.5,-75.5 46.5,-105.5 207.5,-105.5 207.5,-75.5 46.5,-75.5"/>
<text text-anchor="start" x="53.5" y="-86.9" font-family="Arial" font-size="14.00" fill="#000000">has_acl </text>
<text text-anchor="start" x="105.6276" y="-86.9" font-family="Arial" font-size="14.00" fill="#666666">[INTEGER]</text>
<polygon fill="none" stroke="#000000" points="46.5,-45.5 46.5,-75.5 207.5,-75.5 207.5,-45.5 46.5,-45.5"/>
<text text-anchor="start" x="53.5" y="-56.9" font-family="Arial" font-size="14.00" fill="#000000">uid </text>
<text text-anchor="start" x="76.0624" y="-56.9" font-family="Arial" font-size="14.00" fill="#666666">[TEXT]</text>
<polygon fill="none" stroke="#000000" stroke-width="3" points="44.5,-44.5 44.5,-562.5 208.5,-562.5 208.5,-44.5 44.5,-44.5"/>
</g>
</g>
</svg>
