<?xml version="1.0" encoding="UTF-8" standalone="no"?>
<!DOCTYPE svg PUBLIC "-//W3C//DTD SVG 1.1//EN"
 "http://www.w3.org/Graphics/SVG/1.1/DTD/svg11.dtd">
<!-- Generated by graphviz version 2.40.1 (20161225.0304)
 -->
<!-- Title: data_source_usage_by_day Pages: 1 -->
<svg width="382pt" height="315pt"
 viewBox="0.00 0.00 382.00 315.00" xmlns="http://www.w3.org/2000/svg" xmlns:xlink="http://www.w3.org/1999/xlink">
<g id="graph0" class="graph" transform="scale(1 1) rotate(0) translate(4 311)">
<title>data_source_usage_by_day</title>
<polygon fill="#ffffff" stroke="transparent" points="-4,4 -4,-311 378,-311 378,4 -4,4"/>
<!-- data_source_usage_by_day -->
<g id="node1" class="node">
<title>data_source_usage_by_day</title>
<polygon fill="#efefef" stroke="transparent" points="46,-225.5 46,-260.5 328,-260.5 328,-225.5 46,-225.5"/>
<polygon fill="none" stroke="#000000" points="46,-225.5 46,-260.5 328,-260.5 328,-225.5 46,-225.5"/>
<text text-anchor="start" x="52.9417" y="-238.3" font-family="Arial Bold" font-size="18.00" fill="#000000">data_source_usage_by_day</text>
<text text-anchor="start" x="279.0415" y="-238.3" font-family="Arial" font-size="14.00" fill="#000000"> </text>
<text text-anchor="start" x="282.9321" y="-238.3" font-family="Arial" font-size="14.00" fill="#666666">[table]</text>
<polygon fill="none" stroke="#000000" points="46,-195.5 46,-225.5 328,-225.5 328,-195.5 46,-195.5"/>
<text text-anchor="start" x="53" y="-206.9" font-family="Arial" font-size="14.00" fill="#000000">id </text>
<text text-anchor="start" x="67.7798" y="-206.9" font-family="Arial" font-size="14.00" fill="#666666">[INTEGER]</text>
<polygon fill="none" stroke="#000000" points="46,-165.5 46,-195.5 328,-195.5 328,-165.5 46,-165.5"/>
<text text-anchor="start" x="53" y="-176.9" font-family="Arial" font-size="14.00" fill="#000000">data_source_id </text>
<text text-anchor="start" x="152.5918" y="-176.9" font-family="Arial" font-size="14.00" fill="#666666">[INTEGER]</text>
<polygon fill="none" stroke="#000000" points="46,-135.5 46,-165.5 328,-165.5 328,-135.5 46,-135.5"/>
<text text-anchor="start" x="53" y="-146.9" font-family="Arial" font-size="14.00" fill="#000000">day </text>
<text text-anchor="start" x="79.4558" y="-146.9" font-family="Arial" font-size="14.00" fill="#666666">[TEXT]</text>
<polygon fill="none" stroke="#000000" points="46,-105.5 46,-135.5 328,-135.5 328,-105.5 46,-105.5"/>
<text text-anchor="start" x="53" y="-116.9" font-family="Arial" font-size="14.00" fill="#000000">queries </text>
<text text-anchor="start" x="102.7882" y="-116.9" font-family="Arial" font-size="14.00" fill="#666666">[INTEGER]</text>
<polygon fill="none" stroke="#000000" points="46,-75.5 46,-105.5 328,-105.5 328,-75.5 46,-75.5"/>
<text text-anchor="start" x="53" y="-86.9" font-family="Arial" font-size="14.00" fill="#000000">errors </text>
<text text-anchor="start" x="93.4376" y="-86.9" font-family="Arial" font-size="14.00" fill="#666666">[INTEGER]</text>
<polygon fill="none" stroke="#000000" points="46,-45.5 46,-75.5 328,-75.5 328,-45.5 46,-45.5"/>
<text text-anchor="start" x="53" y="-56.9" font-family="Arial" font-size="14.00" fill="#000000">load_duration_ms </text>
<text text-anchor="start" x="168.1416" y="-56.9" font-family="Arial" font-size="14.00" fill="#666666">[INTEGER]</text>
<polygon fill="none" stroke="#000000" stroke-width="3" points="44.5,-44.5 44.5,-262.5 329.5,-262.5 329.5,-44.5 44.5,-44.5"/>
</g>
</g>
</svg>
