<?xml version="1.0" encoding="UTF-8" standalone="no"?>
<!DOCTYPE svg PUBLIC "-//W3C//DTD SVG 1.1//EN"
 "http://www.w3.org/Graphics/SVG/1.1/DTD/svg11.dtd">
<!-- Generated by graphviz version 2.40.1 (20161225.0304)
 -->
<!-- Title: migration_log Pages: 1 -->
<svg width="264pt" height="315pt"
 viewBox="0.00 0.00 264.00 315.00" xmlns="http://www.w3.org/2000/svg" xmlns:xlink="http://www.w3.org/1999/xlink">
<g id="graph0" class="graph" transform="scale(1 1) rotate(0) translate(4 311)">
<title>migration_log</title>
<polygon fill="#ffffff" stroke="transparent" points="-4,4 -4,-311 260,-311 260,4 -4,4"/>
<!-- migration_log -->
<g id="node1" class="node">
<title>migration_log</title>
<polygon fill="#efefef" stroke="transparent" points="46,-225.5 46,-260.5 210,-260.5 210,-225.5 46,-225.5"/>
<polygon fill="none" stroke="#000000" points="46,-225.5 46,-260.5 210,-260.5 210,-225.5 46,-225.5"/>
<text text-anchor="start" x="52.9853" y="-238.3" font-family="Arial Bold" font-size="18.00" fill="#000000">migration_log</text>
<text text-anchor="start" x="160.9979" y="-238.3" font-family="Arial" font-size="14.00" fill="#000000"> </text>
<text text-anchor="start" x="164.8885" y="-238.3" font-family="Arial" font-size="14.00" fill="#666666">[table]</text>
<polygon fill="none" stroke="#000000" points="46,-195.5 46,-225.5 210,-225.5 210,-195.5 46,-195.5"/>
<text text-anchor="start" x="53" y="-206.9" font-family="Arial" font-size="14.00" fill="#000000">id </text>
<text text-anchor="start" x="67.7798" y="-206.9" font-family="Arial" font-size="14.00" fill="#666666">[INTEGER]</text>
<polygon fill="none" stroke="#000000" points="46,-165.5 46,-195.5 210,-195.5 210,-165.5 46,-165.5"/>
<text text-anchor="start" x="53" y="-176.9" font-family="Arial" font-size="14.00" fill="#000000">migration_id </text>
<text text-anchor="start" x="133.1178" y="-176.9" font-family="Arial" font-size="14.00" fill="#666666">[TEXT]</text>
<polygon fill="none" stroke="#000000" points="46,-135.5 46,-165.5 210,-165.5 210,-135.5 46,-135.5"/>
<text text-anchor="start" x="53" y="-146.9" font-family="Arial" font-size="14.00" fill="#000000">sql </text>
<text text-anchor="start" x="74.7798" y="-146.9" font-family="Arial" font-size="14.00" fill="#666666">[TEXT]</text>
<polygon fill="none" stroke="#000000" points="46,-105.5 46,-135.5 210,-135.5 210,-105.5 46,-105.5"/>
<text text-anchor="start" x="53" y="-116.9" font-family="Arial" font-size="14.00" fill="#000000">success </text>
<text text-anchor="start" x="107.4558" y="-116.9" font-family="Arial" font-size="14.00" fill="#666666">[INTEGER]</text>
<polygon fill="none" stroke="#000000" points="46,-75.5 46,-105.5 210,-105.5 210,-75.5 46,-75.5"/>
<text text-anchor="start" x="53" y="-86.9" font-family="Arial" font-size="14.00" fill="#000000">error </text>
<text text-anchor="start" x="86.4376" y="-86.9" font-family="Arial" font-size="14.00" fill="#666666">[TEXT]</text>
<polygon fill="none" stroke="#000000" points="46,-45.5 46,-75.5 210,-75.5 210,-45.5 46,-45.5"/>
<text text-anchor="start" x="53" y="-56.9" font-family="Arial" font-size="14.00" fill="#000000">timestamp </text>
<text text-anchor="start" x="121.4474" y="-56.9" font-family="Arial" font-size="14.00" fill="#666666">[DATETIME]</text>
<polygon fill="none" stroke="#000000" stroke-width="3" points="44.5,-44.5 44.5,-262.5 211.5,-262.5 211.5,-44.5 44.5,-44.5"/>
</g>
</g>
</svg>
