<?xml version="1.0" encoding="UTF-8" standalone="no"?>
<!DOCTYPE svg PUBLIC "-//W3C//DTD SVG 1.1//EN"
 "http://www.w3.org/Graphics/SVG/1.1/DTD/svg11.dtd">
<!-- Generated by graphviz version 2.40.1 (20161225.0304)
 -->
<!-- Title: org_user Pages: 1 -->
<svg width="247pt" height="315pt"
 viewBox="0.00 0.00 247.00 315.00" xmlns="http://www.w3.org/2000/svg" xmlns:xlink="http://www.w3.org/1999/xlink">
<g id="graph0" class="graph" transform="scale(1 1) rotate(0) translate(4 311)">
<title>org_user</title>
<polygon fill="#ffffff" stroke="transparent" points="-4,4 -4,-311 243,-311 243,4 -4,4"/>
<!-- org_user -->
<g id="node1" class="node">
<title>org_user</title>
<polygon fill="#efefef" stroke="transparent" points="46.5,-225.5 46.5,-260.5 193.5,-260.5 193.5,-225.5 46.5,-225.5"/>
<polygon fill="none" stroke="#000000" points="46.5,-225.5 46.5,-260.5 193.5,-260.5 193.5,-225.5 46.5,-225.5"/>
<text text-anchor="start" x="63.4839" y="-238.3" font-family="Arial Bold" font-size="18.00" fill="#000000">org_user</text>
<text text-anchor="start" x="134.4993" y="-238.3" font-family="Arial" font-size="14.00" fill="#000000"> </text>
<text text-anchor="start" x="138.3899" y="-238.3" font-family="Arial" font-size="14.00" fill="#666666">[table]</text>
<polygon fill="none" stroke="#000000" points="46.5,-195.5 46.5,-225.5 193.5,-225.5 193.5,-195.5 46.5,-195.5"/>
<text text-anchor="start" x="53.5" y="-206.9" font-family="Arial" font-size="14.00" fill="#000000">id </text>
<text text-anchor="start" x="68.2798" y="-206.9" font-family="Arial" font-size="14.00" fill="#666666">[INTEGER]</text>
<polygon fill="none" stroke="#000000" points="46.5,-165.5 46.5,-195.5 193.5,-195.5 193.5,-165.5 46.5,-165.5"/>
<text text-anchor="start" x="53.5" y="-176.9" font-family="Arial" font-size="14.00" fill="#000000">org_id </text>
<text text-anchor="start" x="96.2882" y="-176.9" font-family="Arial" font-size="14.00" fill="#666666">[INTEGER]</text>
<polygon fill="none" stroke="#000000" points="46.5,-135.5 46.5,-165.5 193.5,-165.5 193.5,-135.5 46.5,-135.5"/>
<text text-anchor="start" x="53.5" y="-146.9" font-family="Arial" font-size="14.00" fill="#000000">user_id </text>
<text text-anchor="start" x="103.2882" y="-146.9" font-family="Arial" font-size="14.00" fill="#666666">[INTEGER]</text>
<polygon fill="none" stroke="#000000" points="46.5,-105.5 46.5,-135.5 193.5,-135.5 193.5,-105.5 46.5,-105.5"/>
<text text-anchor="start" x="53.5" y="-116.9" font-family="Arial" font-size="14.00" fill="#000000">role </text>
<text text-anchor="start" x="80.723" y="-116.9" font-family="Arial" font-size="14.00" fill="#666666">[TEXT]</text>
<polygon fill="none" stroke="#000000" points="46.5,-75.5 46.5,-105.5 193.5,-105.5 193.5,-75.5 46.5,-75.5"/>
<text text-anchor="start" x="53.5" y="-86.9" font-family="Arial" font-size="14.00" fill="#000000">created </text>
<text text-anchor="start" x="104.0722" y="-86.9" font-family="Arial" font-size="14.00" fill="#666666">[DATETIME]</text>
<polygon fill="none" stroke="#000000" points="46.5,-45.5 46.5,-75.5 193.5,-75.5 193.5,-45.5 46.5,-45.5"/>
<text text-anchor="start" x="53.4846" y="-56.9" font-family="Arial" font-size="14.00" fill="#000000">updated </text>
<text text-anchor="start" x="107.9614" y="-56.9" font-family="Arial" font-size="14.00" fill="#666666">[DATETIME]</text>
<polygon fill="none" stroke="#000000" stroke-width="3" points="44.5,-44.5 44.5,-262.5 194.5,-262.5 194.5,-44.5 44.5,-44.5"/>
</g>
</g>
</svg>
