<?xml version="1.0" encoding="UTF-8" standalone="no"?>
<!DOCTYPE svg PUBLIC "-//W3C//DTD SVG 1.1//EN"
 "http://www.w3.org/Graphics/SVG/1.1/DTD/svg11.dtd">
<!-- Generated by graphviz version 2.40.1 (20161225.0304)
 -->
<!-- Title: plugin_setting Pages: 1 -->
<svg width="271pt" height="435pt"
 viewBox="0.00 0.00 271.00 435.00" xmlns="http://www.w3.org/2000/svg" xmlns:xlink="http://www.w3.org/1999/xlink">
<g id="graph0" class="graph" transform="scale(1 1) rotate(0) translate(4 431)">
<title>plugin_setting</title>
<polygon fill="#ffffff" stroke="transparent" points="-4,4 -4,-431 267,-431 267,4 -4,4"/>
<!-- plugin_setting -->
<g id="node1" class="node">
<title>plugin_setting</title>
<polygon fill="#efefef" stroke="transparent" points="46.5,-345.5 46.5,-380.5 217.5,-380.5 217.5,-345.5 46.5,-345.5"/>
<polygon fill="none" stroke="#000000" points="46.5,-345.5 46.5,-380.5 217.5,-380.5 217.5,-345.5 46.5,-345.5"/>
<text text-anchor="start" x="55.4733" y="-358.3" font-family="Arial Bold" font-size="18.00" fill="#000000">plugin_setting</text>
<text text-anchor="start" x="166.5099" y="-358.3" font-family="Arial" font-size="14.00" fill="#000000"> </text>
<text text-anchor="start" x="170.4005" y="-358.3" font-family="Arial" font-size="14.00" fill="#666666">[table]</text>
<polygon fill="none" stroke="#000000" points="46.5,-315.5 46.5,-345.5 217.5,-345.5 217.5,-315.5 46.5,-315.5"/>
<text text-anchor="start" x="53.5" y="-326.9" font-family="Arial" font-size="14.00" fill="#000000">id </text>
<text text-anchor="start" x="68.2798" y="-326.9" font-family="Arial" font-size="14.00" fill="#666666">[INTEGER]</text>
<polygon fill="none" stroke="#000000" points="46.5,-285.5 46.5,-315.5 217.5,-315.5 217.5,-285.5 46.5,-285.5"/>
<text text-anchor="start" x="53.5" y="-296.9" font-family="Arial" font-size="14.00" fill="#000000">org_id </text>
<text text-anchor="start" x="96.2882" y="-296.9" font-family="Arial" font-size="14.00" fill="#666666">[INTEGER]</text>
<polygon fill="none" stroke="#000000" points="46.5,-255.5 46.5,-285.5 217.5,-285.5 217.5,-255.5 46.5,-255.5"/>
<text text-anchor="start" x="53.5" y="-266.9" font-family="Arial" font-size="14.00" fill="#000000">plugin_id </text>
<text text-anchor="start" x="113.406" y="-266.9" font-family="Arial" font-size="14.00" fill="#666666">[TEXT]</text>
<polygon fill="none" stroke="#000000" points="46.5,-225.5 46.5,-255.5 217.5,-255.5 217.5,-225.5 46.5,-225.5"/>
<text text-anchor="start" x="53.5" y="-236.9" font-family="Arial" font-size="14.00" fill="#000000">enabled </text>
<text text-anchor="start" x="107.1928" y="-236.9" font-family="Arial" font-size="14.00" fill="#666666">[INTEGER]</text>
<polygon fill="none" stroke="#000000" points="46.5,-195.5 46.5,-225.5 217.5,-225.5 217.5,-195.5 46.5,-195.5"/>
<text text-anchor="start" x="53.5" y="-206.9" font-family="Arial" font-size="14.00" fill="#000000">pinned </text>
<text text-anchor="start" x="99.4102" y="-206.9" font-family="Arial" font-size="14.00" fill="#666666">[INTEGER]</text>
<polygon fill="none" stroke="#000000" points="46.5,-165.5 46.5,-195.5 217.5,-195.5 217.5,-165.5 46.5,-165.5"/>
<text text-anchor="start" x="53.5" y="-176.9" font-family="Arial" font-size="14.00" fill="#000000">json_data </text>
<text text-anchor="start" x="118.0834" y="-176.9" font-family="Arial" font-size="14.00" fill="#666666">[TEXT]</text>
<polygon fill="none" stroke="#000000" points="46.5,-135.5 46.5,-165.5 217.5,-165.5 217.5,-135.5 46.5,-135.5"/>
<text text-anchor="start" x="53.033" y="-146.9" font-family="Arial" font-size="14.00" fill="#000000">secure_json_data </text>
<text text-anchor="start" x="167.4074" y="-146.9" font-family="Arial" font-size="14.00" fill="#666666">[TEXT]</text>
<polygon fill="none" stroke="#000000" points="46.5,-105.5 46.5,-135.5 217.5,-135.5 217.5,-105.5 46.5,-105.5"/>
<text text-anchor="start" x="53.5" y="-116.9" font-family="Arial" font-size="14.00" fill="#000000">created </text>
<text text-anchor="start" x="104.0722" y="-116.9" font-family="Arial" font-size="14.00" fill="#666666">[DATETIME]</text>
<polygon fill="none" stroke="#000000" points="46.5,-75.5 46.5,-105.5 217.5,-105.5 217.5,-75.5 46.5,-75.5"/>
<text text-anchor="start" x="53.5" y="-86.9" font-family="Arial" font-size="14.00" fill="#000000">updated </text>
<text text-anchor="start" x="107.9768" y="-86.9" font-family="Arial" font-size="14.00" fill="#666666">[DATETIME]</text>
<polygon fill="none" stroke="#000000" points="46.5,-45.5 46.5,-75.5 217.5,-75.5 217.5,-45.5 46.5,-45.5"/>
<text text-anchor="start" x="53.5" y="-56.9" font-family="Arial" font-size="14.00" fill="#000000">plugin_version </text>
<text text-anchor="start" x="147.6318" y="-56.9" font-family="Arial" font-size="14.00" fill="#666666">[TEXT]</text>
<polygon fill="none" stroke="#000000" stroke-width="3" points="44.5,-44.5 44.5,-382.5 218.5,-382.5 218.5,-44.5 44.5,-44.5"/>
</g>
</g>
</svg>
