<?xml version="1.0" encoding="UTF-8" standalone="no"?>
<!DOCTYPE svg PUBLIC "-//W3C//DTD SVG 1.1//EN"
 "http://www.w3.org/Graphics/SVG/1.1/DTD/svg11.dtd">
<!-- Generated by graphviz version 2.40.1 (20161225.0304)
 -->
<!-- Title: preferences Pages: 1 -->
<svg width="315pt" height="435pt"
 viewBox="0.00 0.00 315.00 435.00" xmlns="http://www.w3.org/2000/svg" xmlns:xlink="http://www.w3.org/1999/xlink">
<g id="graph0" class="graph" transform="scale(1 1) rotate(0) translate(4 431)">
<title>preferences</title>
<polygon fill="#ffffff" stroke="transparent" points="-4,4 -4,-431 311,-431 311,4 -4,4"/>
<!-- preferences -->
<g id="node1" class="node">
<title>preferences</title>
<polygon fill="#efefef" stroke="transparent" points="46.5,-345.5 46.5,-380.5 261.5,-380.5 261.5,-345.5 46.5,-345.5"/>
<polygon fill="none" stroke="#000000" points="46.5,-345.5 46.5,-380.5 261.5,-380.5 261.5,-345.5 46.5,-345.5"/>
<text text-anchor="start" x="85.4797" y="-358.3" font-family="Arial Bold" font-size="18.00" fill="#000000">preferences</text>
<text text-anchor="start" x="180.5035" y="-358.3" font-family="Arial" font-size="14.00" fill="#000000"> </text>
<text text-anchor="start" x="184.3941" y="-358.3" font-family="Arial" font-size="14.00" fill="#666666">[table]</text>
<polygon fill="none" stroke="#000000" points="46.5,-315.5 46.5,-345.5 261.5,-345.5 261.5,-315.5 46.5,-315.5"/>
<text text-anchor="start" x="53.5" y="-326.9" font-family="Arial" font-size="14.00" fill="#000000">id </text>
<text text-anchor="start" x="68.2798" y="-326.9" font-family="Arial" font-size="14.00" fill="#666666">[INTEGER]</text>
<polygon fill="none" stroke="#000000" points="46.5,-285.5 46.5,-315.5 261.5,-315.5 261.5,-285.5 46.5,-285.5"/>
<text text-anchor="start" x="53.5" y="-296.9" font-family="Arial" font-size="14.00" fill="#000000">org_id </text>
<text text-anchor="start" x="96.2882" y="-296.9" font-family="Arial" font-size="14.00" fill="#666666">[INTEGER]</text>
<polygon fill="none" stroke="#000000" points="46.5,-255.5 46.5,-285.5 261.5,-285.5 261.5,-255.5 46.5,-255.5"/>
<text text-anchor="start" x="53.5" y="-266.9" font-family="Arial" font-size="14.00" fill="#000000">user_id </text>
<text text-anchor="start" x="103.2882" y="-266.9" font-family="Arial" font-size="14.00" fill="#666666">[INTEGER]</text>
<polygon fill="none" stroke="#000000" points="46.5,-225.5 46.5,-255.5 261.5,-255.5 261.5,-225.5 46.5,-225.5"/>
<text text-anchor="start" x="53.5" y="-236.9" font-family="Arial" font-size="14.00" fill="#000000">version </text>
<text text-anchor="start" x="102.5056" y="-236.9" font-family="Arial" font-size="14.00" fill="#666666">[INTEGER]</text>
<polygon fill="none" stroke="#000000" points="46.5,-195.5 46.5,-225.5 261.5,-225.5 261.5,-195.5 46.5,-195.5"/>
<text text-anchor="start" x="53.2532" y="-206.9" font-family="Arial" font-size="14.00" fill="#000000">home_dashboard_id </text>
<text text-anchor="start" x="184.7454" y="-206.9" font-family="Arial" font-size="14.00" fill="#666666">[INTEGER]</text>
<polygon fill="none" stroke="#000000" points="46.5,-165.5 46.5,-195.5 261.5,-195.5 261.5,-165.5 46.5,-165.5"/>
<text text-anchor="start" x="53.5" y="-176.9" font-family="Arial" font-size="14.00" fill="#000000">timezone </text>
<text text-anchor="start" x="114.1788" y="-176.9" font-family="Arial" font-size="14.00" fill="#666666">[TEXT]</text>
<polygon fill="none" stroke="#000000" points="46.5,-135.5 46.5,-165.5 261.5,-165.5 261.5,-135.5 46.5,-135.5"/>
<text text-anchor="start" x="53.5" y="-146.9" font-family="Arial" font-size="14.00" fill="#000000">theme </text>
<text text-anchor="start" x="96.2896" y="-146.9" font-family="Arial" font-size="14.00" fill="#666666">[TEXT]</text>
<polygon fill="none" stroke="#000000" points="46.5,-105.5 46.5,-135.5 261.5,-135.5 261.5,-105.5 46.5,-105.5"/>
<text text-anchor="start" x="53.5" y="-116.9" font-family="Arial" font-size="14.00" fill="#000000">created </text>
<text text-anchor="start" x="104.0722" y="-116.9" font-family="Arial" font-size="14.00" fill="#666666">[DATETIME]</text>
<polygon fill="none" stroke="#000000" points="46.5,-75.5 46.5,-105.5 261.5,-105.5 261.5,-75.5 46.5,-75.5"/>
<text text-anchor="start" x="53.5" y="-86.9" font-family="Arial" font-size="14.00" fill="#000000">updated </text>
<text text-anchor="start" x="107.9768" y="-86.9" font-family="Arial" font-size="14.00" fill="#666666">[DATETIME]</text>
<polygon fill="none" stroke="#000000" points="46.5,-45.5 46.5,-75.5 261.5,-75.5 261.5,-45.5 46.5,-45.5"/>
<text text-anchor="start" x="53.5" y="-56.9" font-family="Arial" font-size="14.00" fill="#000000">team_id </text>
<text text-anchor="start" x="107.1788" y="-56.9" font-family="Arial" font-size="14.00" fill="#666666">[INTEGER]</text>
<polygon fill="none" stroke="#000000" stroke-width="3" points="44.5,-44.5 44.5,-382.5 262.5,-382.5 262.5,-44.5 44.5,-44.5"/>
</g>
</g>
</svg>
