<?xml version="1.0" encoding="UTF-8" standalone="no"?>
<!DOCTYPE svg PUBLIC "-//W3C//DTD SVG 1.1//EN"
 "http://www.w3.org/Graphics/SVG/1.1/DTD/svg11.dtd">
<!-- Generated by graphviz version 2.40.1 (20161225.0304)
 -->
<!-- Title: report_settings Pages: 1 -->
<svg width="343pt" height="375pt"
 viewBox="0.00 0.00 343.00 375.00" xmlns="http://www.w3.org/2000/svg" xmlns:xlink="http://www.w3.org/1999/xlink">
<g id="graph0" class="graph" transform="scale(1 1) rotate(0) translate(4 371)">
<title>report_settings</title>
<polygon fill="#ffffff" stroke="transparent" points="-4,4 -4,-371 339,-371 339,4 -4,4"/>
<!-- report_settings -->
<g id="node1" class="node">
<title>report_settings</title>
<polygon fill="#efefef" stroke="transparent" points="46.5,-285.5 46.5,-320.5 289.5,-320.5 289.5,-285.5 46.5,-285.5"/>
<polygon fill="none" stroke="#000000" points="46.5,-285.5 46.5,-320.5 289.5,-320.5 289.5,-285.5 46.5,-285.5"/>
<text text-anchor="start" x="87.4773" y="-298.3" font-family="Arial Bold" font-size="18.00" fill="#000000">report_settings</text>
<text text-anchor="start" x="206.5059" y="-298.3" font-family="Arial" font-size="14.00" fill="#000000"> </text>
<text text-anchor="start" x="210.3965" y="-298.3" font-family="Arial" font-size="14.00" fill="#666666">[table]</text>
<polygon fill="none" stroke="#000000" points="46.5,-255.5 46.5,-285.5 289.5,-285.5 289.5,-255.5 46.5,-255.5"/>
<text text-anchor="start" x="53.5" y="-266.9" font-family="Arial" font-size="14.00" fill="#000000">id </text>
<text text-anchor="start" x="68.2798" y="-266.9" font-family="Arial" font-size="14.00" fill="#666666">[INTEGER]</text>
<polygon fill="none" stroke="#000000" points="46.5,-225.5 46.5,-255.5 289.5,-255.5 289.5,-225.5 46.5,-225.5"/>
<text text-anchor="start" x="53.5" y="-236.9" font-family="Arial" font-size="14.00" fill="#000000">user_id </text>
<text text-anchor="start" x="103.2882" y="-236.9" font-family="Arial" font-size="14.00" fill="#666666">[INTEGER]</text>
<polygon fill="none" stroke="#000000" points="46.5,-195.5 46.5,-225.5 289.5,-225.5 289.5,-195.5 46.5,-195.5"/>
<text text-anchor="start" x="53.5" y="-206.9" font-family="Arial" font-size="14.00" fill="#000000">org_id </text>
<text text-anchor="start" x="96.2882" y="-206.9" font-family="Arial" font-size="14.00" fill="#666666">[INTEGER]</text>
<polygon fill="none" stroke="#000000" points="46.5,-165.5 46.5,-195.5 289.5,-195.5 289.5,-165.5 46.5,-165.5"/>
<text text-anchor="start" x="53.5" y="-176.9" font-family="Arial" font-size="14.00" fill="#000000">branding_report_logo_url </text>
<text text-anchor="start" x="213.765" y="-176.9" font-family="Arial" font-size="14.00" fill="#666666">[TEXT]</text>
<polygon fill="none" stroke="#000000" points="46.5,-135.5 46.5,-165.5 289.5,-165.5 289.5,-135.5 46.5,-135.5"/>
<text text-anchor="start" x="53.5" y="-146.9" font-family="Arial" font-size="14.00" fill="#000000">branding_email_logo_url </text>
<text text-anchor="start" x="210.6444" y="-146.9" font-family="Arial" font-size="14.00" fill="#666666">[TEXT]</text>
<polygon fill="none" stroke="#000000" points="46.5,-105.5 46.5,-135.5 289.5,-135.5 289.5,-105.5 46.5,-105.5"/>
<text text-anchor="start" x="53.5" y="-116.9" font-family="Arial" font-size="14.00" fill="#000000">branding_email_footer_link </text>
<text text-anchor="start" x="225.4256" y="-116.9" font-family="Arial" font-size="14.00" fill="#666666">[TEXT]</text>
<polygon fill="none" stroke="#000000" points="46.5,-75.5 46.5,-105.5 289.5,-105.5 289.5,-75.5 46.5,-75.5"/>
<text text-anchor="start" x="53.5" y="-86.9" font-family="Arial" font-size="14.00" fill="#000000">branding_email_footer_text </text>
<text text-anchor="start" x="226.9936" y="-86.9" font-family="Arial" font-size="14.00" fill="#666666">[TEXT]</text>
<polygon fill="none" stroke="#000000" points="46.5,-45.5 46.5,-75.5 289.5,-75.5 289.5,-45.5 46.5,-45.5"/>
<text text-anchor="start" x="53.2511" y="-56.9" font-family="Arial" font-size="14.00" fill="#000000">branding_email_footer_mode </text>
<text text-anchor="start" x="239.1893" y="-56.9" font-family="Arial" font-size="14.00" fill="#666666">[TEXT]</text>
<polygon fill="none" stroke="#000000" stroke-width="3" points="44.5,-44.5 44.5,-322.5 290.5,-322.5 290.5,-44.5 44.5,-44.5"/>
</g>
</g>
</svg>
