<?xml version="1.0" encoding="UTF-8" standalone="no"?>
<!DOCTYPE svg PUBLIC "-//W3C//DTD SVG 1.1//EN"
 "http://www.w3.org/Graphics/SVG/1.1/DTD/svg11.dtd">
<!-- Generated by graphviz version 2.40.1 (20161225.0304)
 -->
<!-- Title: session Pages: 1 -->
<svg width="225pt" height="225pt"
 viewBox="0.00 0.00 225.00 225.00" xmlns="http://www.w3.org/2000/svg" xmlns:xlink="http://www.w3.org/1999/xlink">
<g id="graph0" class="graph" transform="scale(1 1) rotate(0) translate(4 221)">
<title>session</title>
<polygon fill="#ffffff" stroke="transparent" points="-4,4 -4,-221 221,-221 221,4 -4,4"/>
<!-- session -->
<g id="node1" class="node">
<title>session</title>
<polygon fill="#efefef" stroke="transparent" points="46.5,-135.5 46.5,-170.5 171.5,-170.5 171.5,-135.5 46.5,-135.5"/>
<polygon fill="none" stroke="#000000" points="46.5,-135.5 46.5,-170.5 171.5,-170.5 171.5,-135.5 46.5,-135.5"/>
<text text-anchor="start" x="57.4852" y="-148.3" font-family="Arial Bold" font-size="18.00" fill="#000000">session</text>
<text text-anchor="start" x="118.498" y="-148.3" font-family="Arial" font-size="14.00" fill="#000000"> </text>
<text text-anchor="start" x="122.3886" y="-148.3" font-family="Arial" font-size="14.00" fill="#666666">[table]</text>
<polygon fill="none" stroke="#000000" points="46.5,-105.5 46.5,-135.5 171.5,-135.5 171.5,-105.5 46.5,-105.5"/>
<text text-anchor="start" x="53.5" y="-116.9" font-family="Arial" font-size="14.00" fill="#000000">key </text>
<text text-anchor="start" x="79.1732" y="-116.9" font-family="Arial" font-size="14.00" fill="#666666">[TEXT]</text>
<polygon fill="none" stroke="#000000" points="46.5,-75.5 46.5,-105.5 171.5,-105.5 171.5,-75.5 46.5,-75.5"/>
<text text-anchor="start" x="53.5" y="-86.9" font-family="Arial" font-size="14.00" fill="#000000">data </text>
<text text-anchor="start" x="84.629" y="-86.9" font-family="Arial" font-size="14.00" fill="#666666">[BLOB]</text>
<polygon fill="none" stroke="#000000" points="46.5,-45.5 46.5,-75.5 171.5,-75.5 171.5,-45.5 46.5,-45.5"/>
<text text-anchor="start" x="53.3878" y="-56.9" font-family="Arial" font-size="14.00" fill="#000000">expiry </text>
<text text-anchor="start" x="94.6108" y="-56.9" font-family="Arial" font-size="14.00" fill="#666666">[INTEGER]</text>
<polygon fill="none" stroke="#000000" stroke-width="3" points="44.5,-44.5 44.5,-172.5 172.5,-172.5 172.5,-44.5 44.5,-44.5"/>
</g>
</g>
</svg>
