<?xml version="1.0" encoding="UTF-8" standalone="no"?>
<!DOCTYPE svg PUBLIC "-//W3C//DTD SVG 1.1//EN"
 "http://www.w3.org/Graphics/SVG/1.1/DTD/svg11.dtd">
<!-- Generated by graphviz version 2.40.1 (20161225.0304)
 -->
<!-- Title: user_dashboard_views Pages: 1 -->
<svg width="341pt" height="255pt"
 viewBox="0.00 0.00 341.00 255.00" xmlns="http://www.w3.org/2000/svg" xmlns:xlink="http://www.w3.org/1999/xlink">
<g id="graph0" class="graph" transform="scale(1 1) rotate(0) translate(4 251)">
<title>user_dashboard_views</title>
<polygon fill="#ffffff" stroke="transparent" points="-4,4 -4,-251 337,-251 337,4 -4,4"/>
<!-- user_dashboard_views -->
<g id="node1" class="node">
<title>user_dashboard_views</title>
<polygon fill="#efefef" stroke="transparent" points="46.5,-165.5 46.5,-200.5 287.5,-200.5 287.5,-165.5 46.5,-165.5"/>
<polygon fill="none" stroke="#000000" points="46.5,-165.5 46.5,-200.5 287.5,-200.5 287.5,-165.5 46.5,-165.5"/>
<text text-anchor="start" x="53.468" y="-178.3" font-family="Arial Bold" font-size="18.00" fill="#000000">user_dashboard_views</text>
<text text-anchor="start" x="238.5152" y="-178.3" font-family="Arial" font-size="14.00" fill="#000000"> </text>
<text text-anchor="start" x="242.4058" y="-178.3" font-family="Arial" font-size="14.00" fill="#666666">[table]</text>
<polygon fill="none" stroke="#000000" points="46.5,-135.5 46.5,-165.5 287.5,-165.5 287.5,-135.5 46.5,-135.5"/>
<text text-anchor="start" x="53.5" y="-146.9" font-family="Arial" font-size="14.00" fill="#000000">id </text>
<text text-anchor="start" x="68.2798" y="-146.9" font-family="Arial" font-size="14.00" fill="#666666">[INTEGER]</text>
<polygon fill="none" stroke="#000000" points="46.5,-105.5 46.5,-135.5 287.5,-135.5 287.5,-105.5 46.5,-105.5"/>
<text text-anchor="start" x="53.5" y="-116.9" font-family="Arial" font-size="14.00" fill="#000000">user_id </text>
<text text-anchor="start" x="103.2882" y="-116.9" font-family="Arial" font-size="14.00" fill="#666666">[INTEGER]</text>
<polygon fill="none" stroke="#000000" points="46.5,-75.5 46.5,-105.5 287.5,-105.5 287.5,-75.5 46.5,-75.5"/>
<text text-anchor="start" x="53.5" y="-86.9" font-family="Arial" font-size="14.00" fill="#000000">dashboard_id </text>
<text text-anchor="start" x="142.2012" y="-86.9" font-family="Arial" font-size="14.00" fill="#666666">[INTEGER]</text>
<polygon fill="none" stroke="#000000" points="46.5,-45.5 46.5,-75.5 287.5,-75.5 287.5,-45.5 46.5,-45.5"/>
<text text-anchor="start" x="53.5" y="-56.9" font-family="Arial" font-size="14.00" fill="#000000">viewed </text>
<text text-anchor="start" x="100.9516" y="-56.9" font-family="Arial" font-size="14.00" fill="#666666">[DATETIME]</text>
<polygon fill="none" stroke="#000000" stroke-width="3" points="44.5,-44.5 44.5,-202.5 288.5,-202.5 288.5,-44.5 44.5,-44.5"/>
</g>
</g>
</svg>
