<?xml version="1.0" encoding="UTF-8" standalone="no"?>
<!DOCTYPE svg PUBLIC "-//W3C//DTD SVG 1.1//EN"
 "http://www.w3.org/Graphics/SVG/1.1/DTD/svg11.dtd">
<!-- Generated by graphviz version 2.40.1 (20161225.0304)
 -->
<!-- Title: user_auth_token Pages: 1 -->
<svg width="295pt" height="465pt"
 viewBox="0.00 0.00 295.00 465.00" xmlns="http://www.w3.org/2000/svg" xmlns:xlink="http://www.w3.org/1999/xlink">
<g id="graph0" class="graph" transform="scale(1 1) rotate(0) translate(4 461)">
<title>user_auth_token</title>
<polygon fill="#ffffff" stroke="transparent" points="-4,4 -4,-461 291,-461 291,4 -4,4"/>
<!-- user_auth_token -->
<g id="node1" class="node">
<title>user_auth_token</title>
<polygon fill="#efefef" stroke="transparent" points="46.5,-375.5 46.5,-410.5 241.5,-410.5 241.5,-375.5 46.5,-375.5"/>
<polygon fill="none" stroke="#000000" points="46.5,-375.5 46.5,-410.5 241.5,-410.5 241.5,-375.5 46.5,-375.5"/>
<text text-anchor="start" x="55.9623" y="-388.3" font-family="Arial Bold" font-size="18.00" fill="#000000">user_auth_token</text>
<text text-anchor="start" x="190.0209" y="-388.3" font-family="Arial" font-size="14.00" fill="#000000"> </text>
<text text-anchor="start" x="193.9115" y="-388.3" font-family="Arial" font-size="14.00" fill="#666666">[table]</text>
<polygon fill="none" stroke="#000000" points="46.5,-345.5 46.5,-375.5 241.5,-375.5 241.5,-345.5 46.5,-345.5"/>
<text text-anchor="start" x="53.5" y="-356.9" font-family="Arial" font-size="14.00" fill="#000000">id </text>
<text text-anchor="start" x="68.2798" y="-356.9" font-family="Arial" font-size="14.00" fill="#666666">[INTEGER]</text>
<polygon fill="none" stroke="#000000" points="46.5,-315.5 46.5,-345.5 241.5,-345.5 241.5,-315.5 46.5,-315.5"/>
<text text-anchor="start" x="53.5" y="-326.9" font-family="Arial" font-size="14.00" fill="#000000">user_id </text>
<text text-anchor="start" x="103.2882" y="-326.9" font-family="Arial" font-size="14.00" fill="#666666">[INTEGER]</text>
<polygon fill="none" stroke="#000000" points="46.5,-285.5 46.5,-315.5 241.5,-315.5 241.5,-285.5 46.5,-285.5"/>
<text text-anchor="start" x="53.5" y="-296.9" font-family="Arial" font-size="14.00" fill="#000000">auth_token </text>
<text text-anchor="start" x="126.65" y="-296.9" font-family="Arial" font-size="14.00" fill="#666666">[TEXT]</text>
<polygon fill="none" stroke="#000000" points="46.5,-255.5 46.5,-285.5 241.5,-285.5 241.5,-255.5 46.5,-255.5"/>
<text text-anchor="start" x="53.5" y="-266.9" font-family="Arial" font-size="14.00" fill="#000000">prev_auth_token </text>
<text text-anchor="start" x="161.6584" y="-266.9" font-family="Arial" font-size="14.00" fill="#666666">[TEXT]</text>
<polygon fill="none" stroke="#000000" points="46.5,-225.5 46.5,-255.5 241.5,-255.5 241.5,-225.5 46.5,-225.5"/>
<text text-anchor="start" x="53.5" y="-236.9" font-family="Arial" font-size="14.00" fill="#000000">user_agent </text>
<text text-anchor="start" x="127.42" y="-236.9" font-family="Arial" font-size="14.00" fill="#666666">[TEXT]</text>
<polygon fill="none" stroke="#000000" points="46.5,-195.5 46.5,-225.5 241.5,-225.5 241.5,-195.5 46.5,-195.5"/>
<text text-anchor="start" x="53.5" y="-206.9" font-family="Arial" font-size="14.00" fill="#000000">client_ip </text>
<text text-anchor="start" x="108.7314" y="-206.9" font-family="Arial" font-size="14.00" fill="#666666">[TEXT]</text>
<polygon fill="none" stroke="#000000" points="46.5,-165.5 46.5,-195.5 241.5,-195.5 241.5,-165.5 46.5,-165.5"/>
<text text-anchor="start" x="53.3591" y="-176.9" font-family="Arial" font-size="14.00" fill="#000000">auth_token_seen </text>
<text text-anchor="start" x="164.6395" y="-176.9" font-family="Arial" font-size="14.00" fill="#666666">[INTEGER]</text>
<polygon fill="none" stroke="#000000" points="46.5,-135.5 46.5,-165.5 241.5,-165.5 241.5,-135.5 46.5,-135.5"/>
<text text-anchor="start" x="53.5" y="-146.9" font-family="Arial" font-size="14.00" fill="#000000">seen_at </text>
<text text-anchor="start" x="107.1942" y="-146.9" font-family="Arial" font-size="14.00" fill="#666666">[INTEGER]</text>
<polygon fill="none" stroke="#000000" points="46.5,-105.5 46.5,-135.5 241.5,-135.5 241.5,-105.5 46.5,-105.5"/>
<text text-anchor="start" x="53.5" y="-116.9" font-family="Arial" font-size="14.00" fill="#000000">rotated_at </text>
<text text-anchor="start" x="120.4186" y="-116.9" font-family="Arial" font-size="14.00" fill="#666666">[INTEGER]</text>
<polygon fill="none" stroke="#000000" points="46.5,-75.5 46.5,-105.5 241.5,-105.5 241.5,-75.5 46.5,-75.5"/>
<text text-anchor="start" x="53.5" y="-86.9" font-family="Arial" font-size="14.00" fill="#000000">created_at </text>
<text text-anchor="start" x="123.528" y="-86.9" font-family="Arial" font-size="14.00" fill="#666666">[INTEGER]</text>
<polygon fill="none" stroke="#000000" points="46.5,-45.5 46.5,-75.5 241.5,-75.5 241.5,-45.5 46.5,-45.5"/>
<text text-anchor="start" x="53.5" y="-56.9" font-family="Arial" font-size="14.00" fill="#000000">updated_at </text>
<text text-anchor="start" x="127.4326" y="-56.9" font-family="Arial" font-size="14.00" fill="#666666">[INTEGER]</text>
<polygon fill="none" stroke="#000000" stroke-width="3" points="44.5,-44.5 44.5,-412.5 242.5,-412.5 242.5,-44.5 44.5,-44.5"/>
</g>
</g>
</svg>
